{"title":"Lena.2011.DVDRip.AC3.HORiZON-ArtSubs","uid":7441483,"size":1577146842,"categoryP":"video","categoryS":"movies","magnet":"?xt=urn:btih:904ce3c5e66bbe1b5ac45813a57e897ce306394c&amp;dn=Lena.2011.DVDRip.AC3.HORiZON-ArtSubs&amp;tr=udp%3A%2F%2Ftracker.openbittorrent.com%3A80&amp;tr=udp%3A%2F%2Fopen.demonii.com%3A1337&amp;tr=udp%3A%2F%2Ftracker.coppersurfer.tk%3A6969&amp;tr=udp%3A%2F%2Fexodus.desync.com%3A6969","seeders":3,"leechers":1,"uploader":"lletaif","files":3,"time":1342232086,"description":"Plot: Lena is a lonely, plump adolescent girl. Much to her surprise she gets a relationship with the popular but unreliable Daan. Lena moves in with Daan and his strange father Tom and is willing to do a lot for his love. More than a lot.\n\nImdb: http://www.imdb.com/title/tt1642261/\n\nRip Specs:\n\nGeneral\nComplete name                    : Lena.2011.DVDRip.AC3.HORiZON-ArtSubs.avi\nFormat                           : AVI\nFormat/Info                      : Audio Video Interleave\nFile size                        : 1.46 GiB\nDuration                         : 1h 53mn\nOverall bit rate                 : 1 842 Kbps\nWriting application              : FairUse Wizard - http://fairusewizard.com\nWriting library                  : The best and REALLY easy backup tool\n\nVideo\nID                               : 0\nFormat                           : MPEG-4 Visual\nFormat profile                   : Advanced Simple@L5\nFormat settings, BVOP            : 1\nFormat settings, QPel            : No\nFormat settings, GMC             : No warppoints\nFormat settings, Matrix          : Default (MPEG)\nMuxing mode                      : Packed bitstream\nCodec ID                         : XVID\nCodec ID/Hint                    : XviD\nDuration                         : 1h 53mn\nBit rate                         : 1 384 Kbps\nWidth                            : 544 pixels\nHeight                           : 384 pixels\nDisplay aspect ratio             : 1.417\nFrame rate                       : 25.000 fps\nColor space                      : YUV\nChroma subsampling               : 4:2:0\nBit depth                        : 8 bits\nScan type                        : Progressive\nCompression mode                 : Lossy\nBits/(Pixel*Frame)               : 0.265\nStream size                      : 1.10 GiB (75%)\nWriting library                  : XviD 1.2.0.dev47 (UTC 2006-11-01)\n\nAudio\nID                               : 1\nFormat                           : AC-3\nFormat/Info                      : Audio Coding 3\nMode extension                   : CM (complete main)\nCodec ID                         : 2000\nDuration                         : 1h 53mn\nBit rate mode                    : Constant\nBit rate                         : 448 Kbps\nChannel(s)                       : 6 channels\nChannel positions                : Front: L C R, Side: L R, LFE\nSampling rate                    : 48.0 KHz\nBit depth                        : 16 bits\nCompression mode                 : Lossy\nStream size                      : 364 MiB (24%)\nAlignment                        : Split accross interleaves\nInterleave, duration             : 40 ms (1.00 video frame)\nInterleave, preload duration     : 500 ms\n","torrent":{"xt":"urn:btih:904ce3c5e66bbe1b5ac45813a57e897ce306394c","amp;dn":"Lena.2011.DVDRip.AC3.HORiZON-ArtSubs","amp;tr":["udp%3A%2F%2Ftracker.openbittorrent.com%3A80","udp%3A%2F%2Fopen.demonii.com%3A1337","udp%3A%2F%2Ftracker.coppersurfer.tk%3A6969","udp%3A%2F%2Fexodus.desync.com%3A6969"],"infoHash":"904ce3c5e66bbe1b5ac45813a57e897ce306394c","infoHashBuffer":{"type":"Buffer","data":[144,76,227,197,230,107,190,27,90,196,88,19,165,126,137,124,227,6,57,76]},"announce":[],"urlList":[]}}